PathFileType	4	(X/Y/Z)	c:/Users/goper/Files/vsCode/490R/osim_files/C10/C10_Fast_05.trc
DataRate	CameraRate	NumFrames	NumMarkers	Units                	OrigDataRate	OrigDataStartFrame	OrigNumFrames
250.00	250.00	8	36	mm	250.0	1134	2266
                Frame#	Time	LPSIS			LASIS			LTH1			LTH2			LTH3			LTH4			LLFE			LMFE			LSH1			LSH2			LSH3			LSH4			LLMAL			LMMAL			LCAL			LMTP5			LTOE			LMTP1			RPSIS			RASIS			RTH1			RTH2			RTH3			RTH4			RLFE			RMFE			RSH1			RSH2			RSH3			RSH4			RLMAL			RMMAL			RCAL			RMTP1			RTOE			RMTP5		
		X1	Y1	Z1	X2	Y2	Z2	X3	Y3	Z3	X4	Y4	Z4	X5	Y5	Z5	X6	Y6	Z6	X7	Y7	Z7	X8	Y8	Z8	X9	Y9	Z9	X10	Y10	Z10	X11	Y11	Z11	X12	Y12	Z12	X13	Y13	Z13	X14	Y14	Z14	X15	Y15	Z15	X16	Y16	Z16	X17	Y17	Z17	X18	Y18	Z18	X19	Y19	Z19	X20	Y20	Z20	X21	Y21	Z21	X22	Y22	Z22	X23	Y23	Z23	X24	Y24	Z24	X25	Y25	Z25	X26	Y26	Z26	X27	Y27	Z27	X28	Y28	Z28	X29	Y29	Z29	X30	Y30	Z30	X31	Y31	Z31	X32	Y32	Z32	X33	Y33	Z33	X34	Y34	Z34	X35	Y35	Z35	X36	Y36	Z36

1134	4.53200	-882.85040	977.90479	296.97137	-1049.93396	955.93549	412.40204	-1059.54602	728.66913	455.37048	-1083.68970	687.87775	452.73907	-1110.65967	753.54236	436.63284	-1123.74182	707.35333	431.12057	-1218.59338	490.04465	373.14246	-1208.42554	479.35498	255.78175	-1198.40588	391.68365	389.22427	-1217.47729	348.95154	391.54819	-1254.37708	410.84311	370.35873	-1264.37927	366.15836	374.25775	-1331.90515	99.54122	349.36267	0.00000	0.00000	0.00000	-1291.05090	26.20124	311.64270	-1451.71252	96.08755	363.25623	-1486.13757	134.54086	296.02826	-1466.29651	86.93860	256.87357	-885.10675	989.60333	215.57410	-1030.38904	954.89661	74.83961	-878.46497	735.68066	48.28614	-873.21338	693.13312	45.79628	-937.11731	722.50464	35.22111	-924.74017	679.53601	36.12209	-824.80640	470.84686	104.88862	-846.69434	454.93808	213.95332	-721.99115	414.84583	103.66697	-708.04657	373.71619	101.90557	-780.21460	387.39999	103.53941	-756.58423	351.54385	100.91811	-626.05548	118.79820	151.42183	0.00000	0.00000	0.00000	-556.31189	83.70786	189.96432	-739.43146	35.55199	219.66048	-771.94049	41.48135	182.32915	-721.96735	31.05551	118.90808
1135	4.53600	-889.78802	976.93311	297.47882	-1056.83411	955.43231	412.87512	-1067.44739	728.17059	455.65482	-1091.86218	687.59601	453.08698	-1118.28845	753.51007	437.05917	-1131.64087	707.34863	431.58621	-1225.64221	489.30118	372.83890	-1216.72644	479.37622	256.05325	-1203.64844	390.34082	388.63797	-1222.39294	347.82748	390.68500	-1260.29187	408.76373	370.50815	-1269.11426	363.35477	374.50934	-1332.79956	97.07822	349.51166	0.00000	0.00000	0.00000	-1291.08386	26.21025	311.11255	-1452.94556	91.80217	364.18280	-1489.02026	129.75139	297.44022	-1468.00891	82.45866	258.32413	-892.27209	988.63702	216.28186	-1037.12256	953.81323	75.13590	-885.06805	735.20074	48.76373	-879.67041	692.64270	46.21237	-943.64868	721.88019	35.59343	-931.14282	678.92743	36.43513	-830.34906	470.56052	104.81293	-852.12604	454.19800	214.00490	-727.07172	415.51236	103.55056	-712.65979	374.59711	101.78111	-785.18256	387.32498	103.51193	-760.91675	351.85510	100.78704	-626.94360	121.03048	150.35725	0.00000	0.00000	0.00000	-557.35681	86.33645	189.90988	-741.90100	33.60844	217.60666	-772.02399	41.21024	182.35829	-722.38574	31.25785	118.77882
1136	4.54000	-896.71204	976.04089	297.95013	-1063.75830	955.00531	413.38800	-1075.41650	727.74164	455.98419	-1100.24023	687.31439	453.41318	-1126.09949	753.40479	437.38889	-1139.71790	707.20453	431.87076	-1232.57776	488.55017	372.41745	-1225.05310	479.30807	256.38275	-1208.71509	389.02472	387.98148	-1227.01880	346.22156	390.17728	-1266.04211	406.66882	370.57288	-1274.48889	361.67355	374.31003	-1333.70398	95.07802	349.79495	0.00000	0.00000	0.00000	-1291.44128	26.44912	311.26505	-1454.87256	87.16103	364.58533	-1491.54016	124.95025	298.41745	-1469.53589	78.92663	258.81027	-899.47003	987.77490	216.99513	-1044.05884	952.75421	75.47453	-891.81110	734.69843	49.23878	-886.22949	692.20288	46.60141	-950.34302	721.26685	35.97878	-937.69550	678.32001	36.73447	-836.08252	470.23740	104.72173	-857.90088	453.34293	214.00195	-732.35754	416.21533	103.40954	-717.46149	375.48749	101.60683	-789.24341	388.07935	102.97026	-765.45398	352.17374	100.68932	-628.62567	122.93175	150.00163	0.00000	0.00000	0.00000	-558.59741	89.23922	189.62343	-742.29633	33.51808	217.46892	-772.09821	40.96839	182.38091	-722.54419	31.17672	118.94486
1137	4.54400	-903.63995	975.15240	298.45081	-1070.77319	954.58899	413.92447	-1083.70227	727.70477	456.05508	-1108.59717	686.90564	453.60983	-1133.97900	753.22156	437.71445	-1150.79688	709.55249	434.69400	-1239.61841	487.77887	371.95053	-1233.21240	479.11496	256.79599	-1213.67456	387.77271	387.24286	-1231.40576	344.32944	389.23279	-1271.51624	404.59302	370.67096	-1279.32617	359.48373	374.15942	-1335.49060	93.33220	350.14975	0.00000	0.00000	0.00000	-1292.45874	27.58721	311.65305	-1457.06653	82.56525	365.19156	-1494.25610	120.06500	299.17618	-1471.69604	75.64694	259.14117	-906.64948	986.94720	217.70207	-1051.07178	951.72949	75.79038	-898.67297	734.16125	49.70197	-892.96399	691.67511	47.03366	-957.09161	720.60303	36.39816	-944.40955	677.70642	37.10437	-841.99750	469.91730	104.62325	-863.77667	452.69885	214.01624	-737.80347	416.91861	103.25703	-722.44855	376.36609	101.42597	-794.34937	388.07309	102.89988	-770.14624	352.46832	100.59480	-630.38141	124.86036	149.65547	0.00000	0.00000	0.00000	-559.91284	92.27643	189.33984	-742.47552	33.57367	217.47144	-772.22717	40.75526	182.38217	-723.05341	31.43316	118.81863
1138	4.54800	-910.38403	974.42694	298.95883	-1077.73389	954.22650	414.53070	-1091.88477	726.96631	456.41125	-1116.93677	686.34717	453.69382	-1141.94568	752.87354	438.06821	-1158.51624	708.93549	434.35858	-1246.44153	486.84274	371.43976	-1241.01184	478.65463	257.32507	-1218.61157	386.66129	386.42230	-1235.79675	342.88303	389.32248	-1276.99060	402.76971	370.75076	-1284.15906	357.55109	374.05270	-1338.88123	92.28813	350.35608	0.00000	0.00000	0.00000	-1294.08606	28.88402	311.82870	-1460.15894	77.59445	365.64368	-1497.82361	114.77267	299.68607	-1474.45569	72.01806	259.20078	-913.82178	986.12982	218.42229	-1058.17297	950.76270	76.06203	-905.63141	733.67596	50.14018	-899.82996	691.19135	47.39791	-964.00513	720.01874	36.83260	-951.21692	677.11505	37.46334	-848.07446	469.58603	104.55383	-869.72131	451.94507	214.02995	-743.51929	417.63284	103.06535	-727.62726	377.25687	101.23853	-799.65881	388.07977	102.81315	-775.02197	352.79156	100.47578	-632.36194	126.91025	149.23097	0.00000	0.00000	0.00000	-561.38733	95.50143	189.01170	-742.64215	33.58992	217.38829	-772.31873	40.54785	182.41327	-723.44110	31.57705	118.84837
1139	4.55200	-917.11316	973.75055	299.50006	-1084.66638	953.79230	415.13629	-1099.87024	726.16943	456.85587	-1125.04993	685.61169	453.75607	-1149.78613	752.35999	438.44839	-1166.49158	708.44904	434.33270	-1253.15039	485.73047	371.23093	-1248.50562	478.04102	258.10770	-1223.67615	385.92316	385.56888	-1240.46509	341.96042	387.62256	-1282.56140	401.59592	371.23813	-1289.26160	356.27115	374.24707	-1343.93835	92.05821	350.50739	0.00000	0.00000	0.00000	-1295.79407	30.39526	312.06686	-1463.83716	72.06441	365.96655	-1502.67883	109.08796	300.57651	-1477.35938	67.91235	259.52975	-920.99933	985.40259	219.15573	-1065.35400	949.80072	76.33469	-912.68066	733.19232	50.54301	-906.82043	690.69696	47.79053	-971.39435	719.18127	36.91518	-958.15253	676.55573	37.88797	-854.38562	469.21777	104.49794	-875.83575	451.12650	214.02991	-749.38342	418.30273	102.85719	-732.97211	378.17825	101.01382	-805.16211	388.10880	102.74459	-780.07874	353.11664	100.36384	-634.41058	129.03697	148.82948	0.00000	0.00000	0.00000	-562.98016	98.92087	188.67252	-742.69446	33.71057	217.45216	-772.44550	40.38388	182.43980	-723.82159	31.78876	118.83999
1140	4.55600	-923.85242	973.14825	300.07529	-1091.44214	953.40289	415.79251	-1107.87695	725.22937	457.38153	-1133.03699	684.69214	453.62250	-1157.60388	751.62170	438.83591	-1174.31995	707.74139	434.24826	-1259.74573	484.68631	371.32352	-1255.19824	477.35825	258.93692	-1229.03479	385.82986	384.74387	-1245.44690	341.64859	386.60284	-1288.46204	401.71188	372.22931	-1294.42151	356.00650	374.74316	-1349.47998	92.02267	350.56781	0.00000	0.00000	0.00000	-1297.44519	31.84046	312.25412	-1467.16589	66.57095	366.26337	-1508.08838	103.51918	301.98828	-1480.17346	63.75726	260.33508	-928.17505	984.76764	219.87877	-1072.63989	949.00732	76.59242	-919.88483	732.71332	50.98383	-913.96515	690.19025	48.20300	-978.37323	718.73602	37.22456	-965.32336	676.03113	38.36177	-861.87048	467.93744	104.90232	-882.20044	450.35165	214.06343	-755.62451	418.85181	102.57344	-738.49121	379.08777	100.83921	-810.82849	388.11618	102.64445	-785.32086	353.50143	100.24106	-636.66412	131.32881	148.35388	0.00000	0.00000	0.00000	-564.77045	102.49093	188.30263	-742.80127	33.73102	217.47630	-772.60748	40.21172	182.51544	-724.06421	31.90084	119.06666
1141	4.56000	-930.50128	972.62915	300.62656	-1098.13220	953.08026	416.50867	-1115.64160	724.37769	458.02994	-1140.63257	683.76447	453.38422	-1165.41833	750.84760	439.37625	-1181.87170	707.02002	433.98737	-1266.15088	483.88977	371.65030	-1261.37256	476.97824	259.36536	-1234.81555	386.58289	384.02496	-1250.97290	342.38599	387.07108	-1294.51685	402.31735	372.68176	-1300.67883	356.61169	375.16757	-1354.23572	91.70459	350.41501	0.00000	0.00000	0.00000	-1298.76013	33.09558	312.54343	-1469.69482	62.04176	366.25745	-1512.54248	98.15843	302.47137	-1482.33984	59.34308	260.73917	-935.41840	984.18237	220.56795	-1080.06091	948.22614	76.93015	-927.26758	732.29382	51.41835	-921.28345	689.73132	48.64774	-985.76953	718.22052	37.79720	-972.65509	675.58875	38.86740	-868.63037	467.65875	104.88023	-888.82233	449.61172	214.17566	-761.95526	419.59222	102.41579	-744.24323	380.03442	100.64492	-816.83716	388.15625	102.64433	-790.83038	353.87326	100.19933	-639.11194	133.64581	147.87549	0.00000	0.00000	0.00000	-566.79834	106.23298	187.84142	-741.89008	34.67314	218.46306	-772.83441	40.06143	182.59100	-724.60156	32.22205	119.08881
